<mxfile host="Electron" agent="Mozilla/5.0 (X11; Linux x86_64) AppleWebKit/537.36 (KHTML, like Gecko) draw.io/24.7.17 Chrome/128.0.6613.36 Electron/32.0.1 Safari/537.36" version="24.7.17">
  <diagram name="Página-1" id="I79DG9nxFcM3Ktv46hhQ">
    <mxGraphModel dx="2087" dy="992" grid="0" gridSize="10" guides="0" tooltips="1" connect="1" arrows="1" fold="1" page="0" pageScale="1" pageWidth="827" pageHeight="1169" math="0" shadow="0">
      <root>
        <mxCell id="0" />
        <mxCell id="1" parent="0" />
        <mxCell id="JGYPUnwXIvGKZdL3sUW1-18" value="" style="edgeStyle=orthogonalEdgeStyle;rounded=0;orthogonalLoop=1;jettySize=auto;html=1;" parent="1" source="JGYPUnwXIvGKZdL3sUW1-8" target="JGYPUnwXIvGKZdL3sUW1-17" edge="1">
          <mxGeometry relative="1" as="geometry" />
        </mxCell>
        <mxCell id="JGYPUnwXIvGKZdL3sUW1-8" value="Obtendo dados da ação" style="swimlane;whiteSpace=wrap;html=1;rounded=1;" parent="1" vertex="1">
          <mxGeometry x="285" y="307" width="155" height="70" as="geometry" />
        </mxCell>
        <mxCell id="JGYPUnwXIvGKZdL3sUW1-9" value="obterDadosAcao()" style="text;html=1;align=center;verticalAlign=middle;resizable=0;points=[];autosize=1;strokeColor=none;fillColor=none;" parent="JGYPUnwXIvGKZdL3sUW1-8" vertex="1">
          <mxGeometry y="20" width="120" height="30" as="geometry" />
        </mxCell>
        <mxCell id="JGYPUnwXIvGKZdL3sUW1-21" value="" style="edgeStyle=orthogonalEdgeStyle;rounded=0;orthogonalLoop=1;jettySize=auto;html=1;" parent="1" source="JGYPUnwXIvGKZdL3sUW1-16" target="JGYPUnwXIvGKZdL3sUW1-20" edge="1">
          <mxGeometry relative="1" as="geometry" />
        </mxCell>
        <mxCell id="JGYPUnwXIvGKZdL3sUW1-16" value="Solicita dados da ação" style="swimlane;whiteSpace=wrap;html=1;rounded=1;" parent="1" vertex="1">
          <mxGeometry x="525" y="307" width="155" height="70" as="geometry" />
        </mxCell>
        <mxCell id="JGYPUnwXIvGKZdL3sUW1-17" value="Requisita a API da B3&amp;nbsp;" style="text;html=1;align=center;verticalAlign=middle;resizable=0;points=[];autosize=1;strokeColor=none;fillColor=none;" parent="JGYPUnwXIvGKZdL3sUW1-16" vertex="1">
          <mxGeometry y="20" width="140" height="30" as="geometry" />
        </mxCell>
        <mxCell id="JGYPUnwXIvGKZdL3sUW1-29" value="" style="edgeStyle=orthogonalEdgeStyle;rounded=0;orthogonalLoop=1;jettySize=auto;html=1;entryX=0;entryY=0.5;entryDx=0;entryDy=0;" parent="1" source="JGYPUnwXIvGKZdL3sUW1-19" target="JGYPUnwXIvGKZdL3sUW1-27" edge="1">
          <mxGeometry relative="1" as="geometry">
            <mxPoint x="995" y="342" as="targetPoint" />
          </mxGeometry>
        </mxCell>
        <mxCell id="JGYPUnwXIvGKZdL3sUW1-19" value="Recebe dados" style="swimlane;whiteSpace=wrap;html=1;rounded=1;" parent="1" vertex="1">
          <mxGeometry x="765" y="307" width="155" height="70" as="geometry" />
        </mxCell>
        <mxCell id="JGYPUnwXIvGKZdL3sUW1-20" value="API B3 retorna dados" style="text;html=1;align=center;verticalAlign=middle;resizable=0;points=[];autosize=1;strokeColor=none;fillColor=none;rounded=0;" parent="JGYPUnwXIvGKZdL3sUW1-19" vertex="1">
          <mxGeometry y="20" width="140" height="30" as="geometry" />
        </mxCell>
        <mxCell id="JGYPUnwXIvGKZdL3sUW1-23" value="Retorna dados da ação" style="text;html=1;align=center;verticalAlign=middle;whiteSpace=wrap;rounded=0;" parent="1" vertex="1">
          <mxGeometry x="1211" y="360" width="100" height="40" as="geometry" />
        </mxCell>
        <mxCell id="JGYPUnwXIvGKZdL3sUW1-31" value="" style="edgeStyle=orthogonalEdgeStyle;rounded=0;orthogonalLoop=1;jettySize=auto;html=1;" parent="1" source="JGYPUnwXIvGKZdL3sUW1-27" edge="1">
          <mxGeometry relative="1" as="geometry">
            <mxPoint x="1245" y="342" as="targetPoint" />
          </mxGeometry>
        </mxCell>
        <mxCell id="JGYPUnwXIvGKZdL3sUW1-27" value="Retorna dados" style="swimlane;whiteSpace=wrap;html=1;rounded=1;" parent="1" vertex="1">
          <mxGeometry x="1005" y="307" width="167.5" height="70" as="geometry" />
        </mxCell>
        <mxCell id="JGYPUnwXIvGKZdL3sUW1-28" value="Retorna dados da ação" style="text;html=1;align=center;verticalAlign=middle;resizable=0;points=[];autosize=1;strokeColor=none;fillColor=none;" parent="JGYPUnwXIvGKZdL3sUW1-27" vertex="1">
          <mxGeometry x="7.5" y="20" width="150" height="30" as="geometry" />
        </mxCell>
        <mxCell id="JGYPUnwXIvGKZdL3sUW1-148" value="" style="edgeStyle=orthogonalEdgeStyle;rounded=0;orthogonalLoop=1;jettySize=auto;html=1;entryX=0;entryY=0.5;entryDx=0;entryDy=0;" parent="1" source="JGYPUnwXIvGKZdL3sUW1-36" target="JGYPUnwXIvGKZdL3sUW1-145" edge="1">
          <mxGeometry relative="1" as="geometry" />
        </mxCell>
        <mxCell id="JGYPUnwXIvGKZdL3sUW1-36" value="Recebe solicitação de ordem de compra/venda" style="swimlane;whiteSpace=wrap;html=1;startSize=30;rounded=1;" parent="1" vertex="1">
          <mxGeometry x="280" y="472" width="160" height="80" as="geometry" />
        </mxCell>
        <mxCell id="JGYPUnwXIvGKZdL3sUW1-50" value="&lt;div style=&quot;text-align: justify;&quot;&gt;&lt;span style=&quot;text-wrap: nowrap;&quot;&gt;enviaOrdem()&lt;/span&gt;&lt;/div&gt;" style="text;html=1;align=center;verticalAlign=middle;whiteSpace=wrap;rounded=0;" parent="JGYPUnwXIvGKZdL3sUW1-36" vertex="1">
          <mxGeometry x="-10" y="25" width="160" height="50" as="geometry" />
        </mxCell>
        <mxCell id="JGYPUnwXIvGKZdL3sUW1-39" value="Recebe confirmação da API B3" style="swimlane;whiteSpace=wrap;html=1;startSize=30;rounded=1;" parent="1" vertex="1">
          <mxGeometry x="765" y="472" width="180" height="80" as="geometry" />
        </mxCell>
        <mxCell id="JGYPUnwXIvGKZdL3sUW1-52" value="API retorna estado da ordem" style="text;html=1;align=center;verticalAlign=middle;resizable=0;points=[];autosize=1;strokeColor=none;fillColor=none;" parent="JGYPUnwXIvGKZdL3sUW1-39" vertex="1">
          <mxGeometry x="4" y="32" width="172" height="26" as="geometry" />
        </mxCell>
        <mxCell id="JGYPUnwXIvGKZdL3sUW1-45" value="Retorna estado da ordem" style="text;html=1;align=center;verticalAlign=middle;whiteSpace=wrap;rounded=0;" parent="1" vertex="1">
          <mxGeometry x="1281" y="529" width="100" height="40" as="geometry" />
        </mxCell>
        <mxCell id="JGYPUnwXIvGKZdL3sUW1-161" value="" style="edgeStyle=orthogonalEdgeStyle;rounded=0;orthogonalLoop=1;jettySize=auto;html=1;entryX=-0.01;entryY=0.282;entryDx=0;entryDy=0;entryPerimeter=0;" parent="1" source="JGYPUnwXIvGKZdL3sUW1-70" edge="1">
          <mxGeometry relative="1" as="geometry">
            <mxPoint x="528.3999999999999" y="701.1000000000001" as="targetPoint" />
            <Array as="points">
              <mxPoint x="490" y="702" />
            </Array>
          </mxGeometry>
        </mxCell>
        <mxCell id="JGYPUnwXIvGKZdL3sUW1-70" value="Recebe solicitação de modificação de ordem" style="swimlane;whiteSpace=wrap;html=1;startSize=30;rounded=1;" parent="1" vertex="1">
          <mxGeometry x="280" y="662" width="170" height="80" as="geometry" />
        </mxCell>
        <mxCell id="JGYPUnwXIvGKZdL3sUW1-71" value="&lt;span style=&quot;text-wrap: nowrap;&quot;&gt;modificarOrdem(ordem)&lt;/span&gt;" style="text;html=1;align=center;verticalAlign=middle;whiteSpace=wrap;rounded=0;" parent="JGYPUnwXIvGKZdL3sUW1-70" vertex="1">
          <mxGeometry y="25" width="160" height="50" as="geometry" />
        </mxCell>
        <mxCell id="JGYPUnwXIvGKZdL3sUW1-72" value="" style="edgeStyle=orthogonalEdgeStyle;rounded=0;orthogonalLoop=1;jettySize=auto;html=1;entryX=0;entryY=0.5;entryDx=0;entryDy=0;" parent="1" source="JGYPUnwXIvGKZdL3sUW1-73" edge="1">
          <mxGeometry relative="1" as="geometry">
            <mxPoint x="1280" y="702" as="targetPoint" />
          </mxGeometry>
        </mxCell>
        <mxCell id="JGYPUnwXIvGKZdL3sUW1-73" value="Retorna confirmação" style="swimlane;whiteSpace=wrap;html=1;startSize=30;rounded=1;" parent="1" vertex="1">
          <mxGeometry x="1015" y="662" width="180" height="80" as="geometry" />
        </mxCell>
        <mxCell id="JGYPUnwXIvGKZdL3sUW1-74" value="Retorna confirmação da&amp;nbsp;&lt;div style=&quot;text-align: justify;&quot;&gt;modificação&lt;/div&gt;" style="text;html=1;align=center;verticalAlign=middle;resizable=0;points=[];autosize=1;strokeColor=none;fillColor=none;" parent="JGYPUnwXIvGKZdL3sUW1-73" vertex="1">
          <mxGeometry y="30" width="150" height="40" as="geometry" />
        </mxCell>
        <mxCell id="JGYPUnwXIvGKZdL3sUW1-76" value="Retorna confirmação de modificação" style="text;html=1;align=center;verticalAlign=middle;whiteSpace=wrap;rounded=0;" parent="1" vertex="1">
          <mxGeometry x="1243" y="727" width="100" height="40" as="geometry" />
        </mxCell>
        <mxCell id="JGYPUnwXIvGKZdL3sUW1-178" value="" style="edgeStyle=orthogonalEdgeStyle;rounded=0;orthogonalLoop=1;jettySize=auto;html=1;" parent="1" source="JGYPUnwXIvGKZdL3sUW1-106" edge="1">
          <mxGeometry relative="1" as="geometry">
            <mxPoint x="525" y="913" as="targetPoint" />
          </mxGeometry>
        </mxCell>
        <mxCell id="JGYPUnwXIvGKZdL3sUW1-106" value="Recebe solicitação de cancelamento de ordem" style="swimlane;whiteSpace=wrap;html=1;startSize=30;rounded=1;" parent="1" vertex="1">
          <mxGeometry x="280" y="868" width="170" height="90" as="geometry" />
        </mxCell>
        <mxCell id="JGYPUnwXIvGKZdL3sUW1-107" value="&lt;div style=&quot;text-align: justify;&quot;&gt;&lt;span style=&quot;text-align: center;&quot;&gt;cancelaOrdem(ordem)&lt;/span&gt;&lt;br&gt;&lt;/div&gt;" style="text;html=1;align=center;verticalAlign=middle;whiteSpace=wrap;rounded=0;" parent="JGYPUnwXIvGKZdL3sUW1-106" vertex="1">
          <mxGeometry x="5" y="35" width="160" height="50" as="geometry" />
        </mxCell>
        <mxCell id="JGYPUnwXIvGKZdL3sUW1-112" value="Retorna estado do cancelamento de ordem" style="text;html=1;align=center;verticalAlign=middle;whiteSpace=wrap;rounded=0;" parent="1" vertex="1">
          <mxGeometry x="1252" y="936" width="100" height="40" as="geometry" />
        </mxCell>
        <mxCell id="JGYPUnwXIvGKZdL3sUW1-198" value="" style="edgeStyle=orthogonalEdgeStyle;rounded=0;orthogonalLoop=1;jettySize=auto;html=1;" parent="1" source="JGYPUnwXIvGKZdL3sUW1-124" edge="1">
          <mxGeometry relative="1" as="geometry">
            <mxPoint x="525" y="1098" as="targetPoint" />
          </mxGeometry>
        </mxCell>
        <mxCell id="JGYPUnwXIvGKZdL3sUW1-124" value="Recebe solicitação de verificar status da ordem" style="swimlane;whiteSpace=wrap;html=1;startSize=30;rounded=1;" parent="1" vertex="1">
          <mxGeometry x="280" y="1058" width="170" height="80" as="geometry" />
        </mxCell>
        <mxCell id="JGYPUnwXIvGKZdL3sUW1-125" value="&lt;div style=&quot;text-align: justify;&quot;&gt;&lt;span style=&quot;text-align: center;&quot;&gt;consultarStatusOrdem(ordem)&lt;/span&gt;&lt;br&gt;&lt;/div&gt;" style="text;html=1;align=center;verticalAlign=middle;whiteSpace=wrap;rounded=0;" parent="JGYPUnwXIvGKZdL3sUW1-124" vertex="1">
          <mxGeometry x="5" y="25" width="160" height="50" as="geometry" />
        </mxCell>
        <mxCell id="JGYPUnwXIvGKZdL3sUW1-126" value="" style="edgeStyle=orthogonalEdgeStyle;rounded=0;orthogonalLoop=1;jettySize=auto;html=1;entryX=0;entryY=0.5;entryDx=0;entryDy=0;" parent="1" source="JGYPUnwXIvGKZdL3sUW1-127" edge="1">
          <mxGeometry relative="1" as="geometry">
            <mxPoint x="1285" y="1098" as="targetPoint" />
          </mxGeometry>
        </mxCell>
        <mxCell id="JGYPUnwXIvGKZdL3sUW1-127" value="Retorna Status&amp;nbsp;" style="swimlane;whiteSpace=wrap;html=1;startSize=20;rounded=1;" parent="1" vertex="1">
          <mxGeometry x="1025" y="1058" width="180" height="80" as="geometry" />
        </mxCell>
        <mxCell id="JGYPUnwXIvGKZdL3sUW1-128" value="&lt;div style=&quot;text-align: justify;&quot;&gt;&lt;span style=&quot;background-color: initial;&quot;&gt;API retorna status da ordem&lt;/span&gt;&lt;/div&gt;" style="text;html=1;align=center;verticalAlign=middle;resizable=0;points=[];autosize=1;strokeColor=none;fillColor=none;" parent="JGYPUnwXIvGKZdL3sUW1-127" vertex="1">
          <mxGeometry x="6" y="27" width="168" height="26" as="geometry" />
        </mxCell>
        <mxCell id="JGYPUnwXIvGKZdL3sUW1-130" value="Retorna status da ordem" style="text;html=1;align=center;verticalAlign=middle;whiteSpace=wrap;rounded=0;" parent="1" vertex="1">
          <mxGeometry x="1251" y="1116" width="100" height="40" as="geometry" />
        </mxCell>
        <mxCell id="JGYPUnwXIvGKZdL3sUW1-189" value="" style="edgeStyle=orthogonalEdgeStyle;rounded=0;orthogonalLoop=1;jettySize=auto;html=1;" parent="1" source="JGYPUnwXIvGKZdL3sUW1-136" edge="1">
          <mxGeometry relative="1" as="geometry">
            <mxPoint x="545" y="1303" as="targetPoint" />
          </mxGeometry>
        </mxCell>
        <mxCell id="JGYPUnwXIvGKZdL3sUW1-136" value="Recebe solicitação de sincronizar carteira" style="swimlane;whiteSpace=wrap;html=1;startSize=30;rounded=1;" parent="1" vertex="1">
          <mxGeometry x="280" y="1263" width="170" height="80" as="geometry" />
        </mxCell>
        <mxCell id="JGYPUnwXIvGKZdL3sUW1-137" value="&lt;div style=&quot;text-align: left;&quot;&gt;&lt;span style=&quot;&quot;&gt;sincronizaCarteira()&lt;/span&gt;&lt;br&gt;&lt;/div&gt;" style="text;html=1;align=center;verticalAlign=middle;whiteSpace=wrap;rounded=0;" parent="JGYPUnwXIvGKZdL3sUW1-136" vertex="1">
          <mxGeometry x="-20" y="20" width="160" height="50" as="geometry" />
        </mxCell>
        <mxCell id="JGYPUnwXIvGKZdL3sUW1-138" value="" style="edgeStyle=orthogonalEdgeStyle;rounded=0;orthogonalLoop=1;jettySize=auto;html=1;entryX=0;entryY=0.5;entryDx=0;entryDy=0;" parent="1" source="JGYPUnwXIvGKZdL3sUW1-139" edge="1">
          <mxGeometry relative="1" as="geometry">
            <mxPoint x="1325" y="1300.5" as="targetPoint" />
          </mxGeometry>
        </mxCell>
        <mxCell id="JGYPUnwXIvGKZdL3sUW1-139" value="Retorna status da carteira" style="swimlane;whiteSpace=wrap;html=1;startSize=20;rounded=1;" parent="1" vertex="1">
          <mxGeometry x="1065" y="1260.5" width="180" height="80" as="geometry" />
        </mxCell>
        <mxCell id="JGYPUnwXIvGKZdL3sUW1-140" value="&lt;div style=&quot;text-align: justify;&quot;&gt;&lt;span style=&quot;background-color: initial;&quot;&gt;Retorna status da carteira&lt;/span&gt;&lt;/div&gt;&lt;div style=&quot;text-align: justify;&quot;&gt;&lt;span style=&quot;background-color: initial;&quot;&gt;sincronizada&lt;/span&gt;&lt;/div&gt;" style="text;html=1;align=center;verticalAlign=middle;resizable=0;points=[];autosize=1;strokeColor=none;fillColor=none;" parent="JGYPUnwXIvGKZdL3sUW1-139" vertex="1">
          <mxGeometry x="10" y="20" width="160" height="40" as="geometry" />
        </mxCell>
        <mxCell id="JGYPUnwXIvGKZdL3sUW1-142" value="Retorna status da carteira sincronizada" style="text;html=1;align=center;verticalAlign=middle;whiteSpace=wrap;rounded=0;" parent="1" vertex="1">
          <mxGeometry x="1292" y="1319" width="100" height="50" as="geometry" />
        </mxCell>
        <mxCell id="JGYPUnwXIvGKZdL3sUW1-150" value="" style="edgeStyle=orthogonalEdgeStyle;rounded=0;orthogonalLoop=1;jettySize=auto;html=1;" parent="1" target="JGYPUnwXIvGKZdL3sUW1-52" edge="1">
          <mxGeometry relative="1" as="geometry">
            <mxPoint x="695" y="517" as="sourcePoint" />
          </mxGeometry>
        </mxCell>
        <mxCell id="JGYPUnwXIvGKZdL3sUW1-145" value="Envia ordem de compra/venda" style="swimlane;whiteSpace=wrap;html=1;startSize=30;rounded=1;" parent="1" vertex="1">
          <mxGeometry x="525" y="472" width="170" height="80" as="geometry" />
        </mxCell>
        <mxCell id="JGYPUnwXIvGKZdL3sUW1-146" value="&lt;div style=&quot;text-align: left;&quot;&gt;&lt;span style=&quot;&quot;&gt;Envia ordem de compra/venda para API B3&lt;/span&gt;&lt;br&gt;&lt;/div&gt;" style="text;html=1;align=center;verticalAlign=middle;whiteSpace=wrap;rounded=0;" parent="JGYPUnwXIvGKZdL3sUW1-145" vertex="1">
          <mxGeometry x="5" y="25" width="160" height="50" as="geometry" />
        </mxCell>
        <mxCell id="JGYPUnwXIvGKZdL3sUW1-154" value="" style="edgeStyle=orthogonalEdgeStyle;rounded=0;orthogonalLoop=1;jettySize=auto;html=1;entryX=0;entryY=0.5;entryDx=0;entryDy=0;" parent="1" source="JGYPUnwXIvGKZdL3sUW1-151" edge="1">
          <mxGeometry relative="1" as="geometry">
            <mxPoint x="1315" y="512" as="targetPoint" />
          </mxGeometry>
        </mxCell>
        <mxCell id="JGYPUnwXIvGKZdL3sUW1-151" value="Retorna status" style="swimlane;whiteSpace=wrap;html=1;startSize=30;rounded=1;" parent="1" vertex="1">
          <mxGeometry x="1015" y="472" width="180" height="80" as="geometry" />
        </mxCell>
        <mxCell id="JGYPUnwXIvGKZdL3sUW1-152" value="API retorna estado da ordem" style="text;html=1;align=center;verticalAlign=middle;resizable=0;points=[];autosize=1;strokeColor=none;fillColor=none;" parent="JGYPUnwXIvGKZdL3sUW1-151" vertex="1">
          <mxGeometry x="4" y="32" width="172" height="26" as="geometry" />
        </mxCell>
        <mxCell id="JGYPUnwXIvGKZdL3sUW1-153" value="" style="edgeStyle=orthogonalEdgeStyle;rounded=0;orthogonalLoop=1;jettySize=auto;html=1;" parent="1" source="JGYPUnwXIvGKZdL3sUW1-52" target="JGYPUnwXIvGKZdL3sUW1-152" edge="1">
          <mxGeometry relative="1" as="geometry" />
        </mxCell>
        <mxCell id="JGYPUnwXIvGKZdL3sUW1-168" value="" style="edgeStyle=orthogonalEdgeStyle;rounded=0;orthogonalLoop=1;jettySize=auto;html=1;entryX=-0.013;entryY=0.252;entryDx=0;entryDy=0;entryPerimeter=0;" parent="1" source="JGYPUnwXIvGKZdL3sUW1-158" target="JGYPUnwXIvGKZdL3sUW1-166" edge="1">
          <mxGeometry relative="1" as="geometry" />
        </mxCell>
        <mxCell id="JGYPUnwXIvGKZdL3sUW1-158" value="Envia modificação de ordem" style="swimlane;whiteSpace=wrap;html=1;startSize=30;rounded=1;" parent="1" vertex="1">
          <mxGeometry x="530" y="662" width="170" height="80" as="geometry" />
        </mxCell>
        <mxCell id="JGYPUnwXIvGKZdL3sUW1-164" value="&lt;div style=&quot;text-align: justify;&quot;&gt;&lt;span style=&quot;background-color: initial;&quot;&gt;Envia modificação de ordem&lt;/span&gt;&lt;/div&gt;&lt;div style=&quot;text-align: justify;&quot;&gt;para API B3&lt;/div&gt;" style="text;html=1;align=center;verticalAlign=middle;resizable=0;points=[];autosize=1;strokeColor=none;fillColor=none;" parent="JGYPUnwXIvGKZdL3sUW1-158" vertex="1">
          <mxGeometry x="-5" y="30" width="170" height="40" as="geometry" />
        </mxCell>
        <mxCell id="JGYPUnwXIvGKZdL3sUW1-167" value="" style="edgeStyle=orthogonalEdgeStyle;rounded=0;orthogonalLoop=1;jettySize=auto;html=1;entryX=0.006;entryY=0.25;entryDx=0;entryDy=0;entryPerimeter=0;" parent="1" source="JGYPUnwXIvGKZdL3sUW1-165" target="JGYPUnwXIvGKZdL3sUW1-74" edge="1">
          <mxGeometry relative="1" as="geometry" />
        </mxCell>
        <mxCell id="JGYPUnwXIvGKZdL3sUW1-165" value="Recebe confirmação da API B3" style="swimlane;whiteSpace=wrap;html=1;startSize=30;rounded=1;" parent="1" vertex="1">
          <mxGeometry x="765" y="662" width="180" height="80" as="geometry" />
        </mxCell>
        <mxCell id="JGYPUnwXIvGKZdL3sUW1-166" value="API retorna confirmação da&amp;nbsp;&lt;div style=&quot;text-align: justify;&quot;&gt;modificação&lt;/div&gt;" style="text;html=1;align=center;verticalAlign=middle;resizable=0;points=[];autosize=1;strokeColor=none;fillColor=none;" parent="JGYPUnwXIvGKZdL3sUW1-165" vertex="1">
          <mxGeometry y="30" width="170" height="40" as="geometry" />
        </mxCell>
        <mxCell id="JGYPUnwXIvGKZdL3sUW1-184" value="" style="edgeStyle=orthogonalEdgeStyle;rounded=0;orthogonalLoop=1;jettySize=auto;html=1;entryX=-0.009;entryY=0.256;entryDx=0;entryDy=0;entryPerimeter=0;" parent="1" source="JGYPUnwXIvGKZdL3sUW1-176" target="JGYPUnwXIvGKZdL3sUW1-180" edge="1">
          <mxGeometry relative="1" as="geometry">
            <mxPoint x="751" y="914" as="targetPoint" />
          </mxGeometry>
        </mxCell>
        <mxCell id="JGYPUnwXIvGKZdL3sUW1-176" value="Envia cancelamento" style="swimlane;whiteSpace=wrap;html=1;startSize=30;rounded=1;" parent="1" vertex="1">
          <mxGeometry x="525" y="868" width="170" height="90" as="geometry" />
        </mxCell>
        <mxCell id="JGYPUnwXIvGKZdL3sUW1-177" value="&lt;div style=&quot;text-align: justify;&quot;&gt;&lt;span style=&quot;&quot;&gt;Envia solicitação de cancelamento para API B3&lt;/span&gt;&lt;br&gt;&lt;/div&gt;" style="text;html=1;align=center;verticalAlign=middle;whiteSpace=wrap;rounded=0;" parent="JGYPUnwXIvGKZdL3sUW1-176" vertex="1">
          <mxGeometry x="5" y="35" width="160" height="50" as="geometry" />
        </mxCell>
        <mxCell id="JGYPUnwXIvGKZdL3sUW1-183" value="" style="edgeStyle=orthogonalEdgeStyle;rounded=0;orthogonalLoop=1;jettySize=auto;html=1;entryX=0;entryY=0.5;entryDx=0;entryDy=0;" parent="1" source="JGYPUnwXIvGKZdL3sUW1-179" target="JGYPUnwXIvGKZdL3sUW1-181" edge="1">
          <mxGeometry relative="1" as="geometry" />
        </mxCell>
        <mxCell id="JGYPUnwXIvGKZdL3sUW1-179" value="Recebe estado do cancelamento da API B3" style="swimlane;whiteSpace=wrap;html=1;startSize=30;rounded=1;" parent="1" vertex="1">
          <mxGeometry x="772" y="873" width="180" height="80" as="geometry" />
        </mxCell>
        <mxCell id="JGYPUnwXIvGKZdL3sUW1-180" value="&lt;div style=&quot;text-align: justify;&quot;&gt;&lt;span style=&quot;background-color: initial;&quot;&gt;API retorna estado do&amp;nbsp;&lt;/span&gt;&lt;/div&gt;&lt;div style=&quot;text-align: justify;&quot;&gt;&lt;span style=&quot;background-color: initial;&quot;&gt;cancelamento&amp;nbsp;&lt;/span&gt;&lt;span style=&quot;background-color: initial;&quot;&gt;da ordem&lt;/span&gt;&lt;/div&gt;" style="text;html=1;align=center;verticalAlign=middle;resizable=0;points=[];autosize=1;strokeColor=none;fillColor=none;" parent="JGYPUnwXIvGKZdL3sUW1-179" vertex="1">
          <mxGeometry y="30" width="150" height="40" as="geometry" />
        </mxCell>
        <mxCell id="JGYPUnwXIvGKZdL3sUW1-186" value="" style="edgeStyle=orthogonalEdgeStyle;rounded=0;orthogonalLoop=1;jettySize=auto;html=1;entryX=0;entryY=0.5;entryDx=0;entryDy=0;" parent="1" source="JGYPUnwXIvGKZdL3sUW1-181" edge="1">
          <mxGeometry relative="1" as="geometry">
            <mxPoint x="1285" y="913" as="targetPoint" />
          </mxGeometry>
        </mxCell>
        <mxCell id="JGYPUnwXIvGKZdL3sUW1-181" value="Retorna status do cancelamento" style="swimlane;whiteSpace=wrap;html=1;startSize=30;rounded=1;" parent="1" vertex="1">
          <mxGeometry x="1025" y="868" width="170" height="90" as="geometry" />
        </mxCell>
        <mxCell id="JGYPUnwXIvGKZdL3sUW1-182" value="&lt;div style=&quot;text-align: justify;&quot;&gt;&lt;span style=&quot;&quot;&gt;retorna status de cancelamento de ordem de compra&lt;/span&gt;&lt;br&gt;&lt;/div&gt;" style="text;html=1;align=center;verticalAlign=middle;whiteSpace=wrap;rounded=0;" parent="JGYPUnwXIvGKZdL3sUW1-181" vertex="1">
          <mxGeometry x="5" y="35" width="160" height="50" as="geometry" />
        </mxCell>
        <mxCell id="JGYPUnwXIvGKZdL3sUW1-192" value="" style="edgeStyle=orthogonalEdgeStyle;rounded=0;orthogonalLoop=1;jettySize=auto;html=1;entryX=0.001;entryY=0.577;entryDx=0;entryDy=0;entryPerimeter=0;" parent="1" source="JGYPUnwXIvGKZdL3sUW1-187" target="JGYPUnwXIvGKZdL3sUW1-191" edge="1">
          <mxGeometry relative="1" as="geometry" />
        </mxCell>
        <mxCell id="JGYPUnwXIvGKZdL3sUW1-187" value="Efetua requisição de sincronizar carteira" style="swimlane;whiteSpace=wrap;html=1;startSize=30;rounded=1;" parent="1" vertex="1">
          <mxGeometry x="545" y="1260.5" width="170" height="85" as="geometry" />
        </mxCell>
        <mxCell id="JGYPUnwXIvGKZdL3sUW1-188" value="&lt;div style=&quot;text-align: left;&quot;&gt;&lt;span style=&quot;&quot;&gt;Envia solicitação de sincronizar carteira para API B3&lt;/span&gt;&lt;/div&gt;" style="text;html=1;align=center;verticalAlign=middle;whiteSpace=wrap;rounded=0;" parent="JGYPUnwXIvGKZdL3sUW1-187" vertex="1">
          <mxGeometry x="5" y="30" width="160" height="50" as="geometry" />
        </mxCell>
        <mxCell id="JGYPUnwXIvGKZdL3sUW1-190" value="Recebe confirmação da API B3" style="swimlane;whiteSpace=wrap;html=1;startSize=20;rounded=1;" parent="1" vertex="1">
          <mxGeometry x="790" y="1260.5" width="180" height="80" as="geometry" />
        </mxCell>
        <mxCell id="JGYPUnwXIvGKZdL3sUW1-191" value="&lt;div style=&quot;text-align: justify;&quot;&gt;&lt;span style=&quot;background-color: initial;&quot;&gt;API retorna status da carteira&lt;/span&gt;&lt;/div&gt;&lt;div style=&quot;text-align: justify;&quot;&gt;&lt;span style=&quot;background-color: initial;&quot;&gt;sincronizada&lt;/span&gt;&lt;/div&gt;" style="text;html=1;align=center;verticalAlign=middle;resizable=0;points=[];autosize=1;strokeColor=none;fillColor=none;" parent="JGYPUnwXIvGKZdL3sUW1-190" vertex="1">
          <mxGeometry y="20" width="180" height="40" as="geometry" />
        </mxCell>
        <mxCell id="JGYPUnwXIvGKZdL3sUW1-201" value="" style="edgeStyle=orthogonalEdgeStyle;rounded=0;orthogonalLoop=1;jettySize=auto;html=1;" parent="1" source="JGYPUnwXIvGKZdL3sUW1-196" target="JGYPUnwXIvGKZdL3sUW1-200" edge="1">
          <mxGeometry relative="1" as="geometry" />
        </mxCell>
        <mxCell id="JGYPUnwXIvGKZdL3sUW1-196" value="Efetua envio de consulta" style="swimlane;whiteSpace=wrap;html=1;startSize=20;rounded=1;" parent="1" vertex="1">
          <mxGeometry x="525" y="1058" width="170" height="80" as="geometry" />
        </mxCell>
        <mxCell id="JGYPUnwXIvGKZdL3sUW1-197" value="&lt;div style=&quot;text-align: justify;&quot;&gt;&lt;span style=&quot;text-align: center;&quot;&gt;Envia consulta de status da ordem para API B3&lt;/span&gt;&lt;br&gt;&lt;/div&gt;" style="text;html=1;align=center;verticalAlign=middle;whiteSpace=wrap;rounded=0;" parent="JGYPUnwXIvGKZdL3sUW1-196" vertex="1">
          <mxGeometry x="5" y="25" width="160" height="50" as="geometry" />
        </mxCell>
        <mxCell id="JGYPUnwXIvGKZdL3sUW1-199" value="Recebe confirmação da API B3" style="swimlane;whiteSpace=wrap;html=1;startSize=20;rounded=1;" parent="1" vertex="1">
          <mxGeometry x="772" y="1058" width="180" height="80" as="geometry" />
        </mxCell>
        <mxCell id="JGYPUnwXIvGKZdL3sUW1-200" value="&lt;div style=&quot;text-align: justify;&quot;&gt;&lt;span style=&quot;background-color: initial;&quot;&gt;API retorna status da ordem&lt;/span&gt;&lt;/div&gt;" style="text;html=1;align=center;verticalAlign=middle;resizable=0;points=[];autosize=1;strokeColor=none;fillColor=none;" parent="JGYPUnwXIvGKZdL3sUW1-199" vertex="1">
          <mxGeometry x="6" y="27" width="168" height="26" as="geometry" />
        </mxCell>
        <mxCell id="G_4jB5h9tyF6BoxG4SK3-1" value="" style="edgeStyle=none;shape=connector;curved=0;rounded=1;orthogonalLoop=1;jettySize=auto;html=1;strokeColor=default;align=center;verticalAlign=middle;fontFamily=Helvetica;fontSize=12;fontColor=default;labelBackgroundColor=default;startSize=8;endArrow=classic;endSize=8;" parent="1" source="JGYPUnwXIvGKZdL3sUW1-200" target="JGYPUnwXIvGKZdL3sUW1-128" edge="1">
          <mxGeometry relative="1" as="geometry">
            <Array as="points">
              <mxPoint x="997" y="1096" />
            </Array>
          </mxGeometry>
        </mxCell>
        <mxCell id="G_4jB5h9tyF6BoxG4SK3-3" value="" style="edgeStyle=none;shape=connector;curved=0;rounded=1;orthogonalLoop=1;jettySize=auto;html=1;strokeColor=default;align=center;verticalAlign=middle;fontFamily=Helvetica;fontSize=12;fontColor=default;labelBackgroundColor=default;startSize=8;endArrow=classic;endSize=8;" parent="1" source="JGYPUnwXIvGKZdL3sUW1-191" edge="1">
          <mxGeometry relative="1" as="geometry">
            <mxPoint x="1064" y="1301" as="targetPoint" />
          </mxGeometry>
        </mxCell>
        <mxCell id="G_4jB5h9tyF6BoxG4SK3-6" value="" style="ellipse;html=1;shape=endState;fillColor=#000000;strokeColor=#ff0000;fontFamily=Helvetica;fontSize=12;fontColor=default;labelBackgroundColor=default;" parent="1" vertex="1">
          <mxGeometry x="1244" y="327" width="30" height="30" as="geometry" />
        </mxCell>
        <mxCell id="G_4jB5h9tyF6BoxG4SK3-7" value="" style="ellipse;html=1;shape=endState;fillColor=#000000;strokeColor=#ff0000;fontFamily=Helvetica;fontSize=12;fontColor=default;labelBackgroundColor=default;" parent="1" vertex="1">
          <mxGeometry x="1315" y="496" width="30" height="30" as="geometry" />
        </mxCell>
        <mxCell id="G_4jB5h9tyF6BoxG4SK3-9" value="" style="ellipse;html=1;shape=endState;fillColor=#000000;strokeColor=#ff0000;fontFamily=Helvetica;fontSize=12;fontColor=default;labelBackgroundColor=default;" parent="1" vertex="1">
          <mxGeometry x="1279" y="687" width="30" height="30" as="geometry" />
        </mxCell>
        <mxCell id="G_4jB5h9tyF6BoxG4SK3-11" value="" style="ellipse;html=1;shape=endState;fillColor=#000000;strokeColor=#ff0000;fontFamily=Helvetica;fontSize=12;fontColor=default;labelBackgroundColor=default;" parent="1" vertex="1">
          <mxGeometry x="1285" y="898" width="30" height="30" as="geometry" />
        </mxCell>
        <mxCell id="G_4jB5h9tyF6BoxG4SK3-12" value="" style="ellipse;html=1;shape=endState;fillColor=#000000;strokeColor=#ff0000;fontFamily=Helvetica;fontSize=12;fontColor=default;labelBackgroundColor=default;" parent="1" vertex="1">
          <mxGeometry x="1285" y="1083" width="30" height="30" as="geometry" />
        </mxCell>
        <mxCell id="G_4jB5h9tyF6BoxG4SK3-13" value="" style="ellipse;html=1;shape=endState;fillColor=#000000;strokeColor=#ff0000;fontFamily=Helvetica;fontSize=12;fontColor=default;labelBackgroundColor=default;" parent="1" vertex="1">
          <mxGeometry x="1325" y="1286" width="30" height="30" as="geometry" />
        </mxCell>
        <mxCell id="G_4jB5h9tyF6BoxG4SK3-19" style="edgeStyle=none;shape=connector;curved=0;rounded=1;orthogonalLoop=1;jettySize=auto;html=1;exitX=1;exitY=0.5;exitDx=0;exitDy=0;entryX=0;entryY=0.5;entryDx=0;entryDy=0;strokeColor=default;align=center;verticalAlign=middle;fontFamily=Helvetica;fontSize=12;fontColor=default;labelBackgroundColor=default;startSize=8;endArrow=classic;endSize=8;" parent="1" source="G_4jB5h9tyF6BoxG4SK3-15" target="G_4jB5h9tyF6BoxG4SK3-18" edge="1">
          <mxGeometry relative="1" as="geometry" />
        </mxCell>
        <mxCell id="q8ojRqLTtz0W8uFgenrz-3" value="[recebe solicitação]" style="edgeLabel;html=1;align=center;verticalAlign=middle;resizable=0;points=[];fontSize=12;fontFamily=Helvetica;fontColor=default;labelBackgroundColor=default;" vertex="1" connectable="0" parent="G_4jB5h9tyF6BoxG4SK3-19">
          <mxGeometry x="-0.1893" y="2" relative="1" as="geometry">
            <mxPoint x="8" y="-8" as="offset" />
          </mxGeometry>
        </mxCell>
        <mxCell id="G_4jB5h9tyF6BoxG4SK3-15" value="Esperando Solicitação" style="swimlane;whiteSpace=wrap;html=1;startSize=30;rounded=1;" parent="1" vertex="1">
          <mxGeometry x="-349" y="774" width="170" height="65" as="geometry" />
        </mxCell>
        <mxCell id="G_4jB5h9tyF6BoxG4SK3-26" style="edgeStyle=none;shape=connector;curved=0;rounded=1;orthogonalLoop=1;jettySize=auto;html=1;exitX=1;exitY=0.5;exitDx=0;exitDy=0;entryX=0;entryY=0.5;entryDx=0;entryDy=0;strokeColor=default;align=center;verticalAlign=middle;fontFamily=Helvetica;fontSize=12;fontColor=default;labelBackgroundColor=default;startSize=8;endArrow=classic;endSize=8;" parent="1" source="G_4jB5h9tyF6BoxG4SK3-18" target="JGYPUnwXIvGKZdL3sUW1-124" edge="1">
          <mxGeometry relative="1" as="geometry">
            <Array as="points">
              <mxPoint x="26" y="806" />
              <mxPoint x="54" y="1098" />
            </Array>
          </mxGeometry>
        </mxCell>
        <mxCell id="G_4jB5h9tyF6BoxG4SK3-27" style="edgeStyle=none;shape=connector;curved=0;rounded=1;orthogonalLoop=1;jettySize=auto;html=1;exitX=1;exitY=0.5;exitDx=0;exitDy=0;entryX=0;entryY=0.5;entryDx=0;entryDy=0;strokeColor=default;align=center;verticalAlign=middle;fontFamily=Helvetica;fontSize=12;fontColor=default;labelBackgroundColor=default;startSize=8;endArrow=classic;endSize=8;" parent="1" source="G_4jB5h9tyF6BoxG4SK3-18" target="JGYPUnwXIvGKZdL3sUW1-106" edge="1">
          <mxGeometry relative="1" as="geometry">
            <Array as="points">
              <mxPoint x="27" y="806" />
              <mxPoint x="57" y="915" />
            </Array>
          </mxGeometry>
        </mxCell>
        <mxCell id="G_4jB5h9tyF6BoxG4SK3-18" value="" style="ellipse;whiteSpace=wrap;html=1;aspect=fixed;fontFamily=Helvetica;fontSize=12;fontColor=default;labelBackgroundColor=default;strokeWidth=2;" parent="1" vertex="1">
          <mxGeometry x="-42" y="788" width="35" height="35" as="geometry" />
        </mxCell>
        <mxCell id="G_4jB5h9tyF6BoxG4SK3-20" style="edgeStyle=none;shape=connector;curved=0;rounded=1;orthogonalLoop=1;jettySize=auto;html=1;exitX=1;exitY=0.5;exitDx=0;exitDy=0;entryX=-0.007;entryY=0.433;entryDx=0;entryDy=0;entryPerimeter=0;strokeColor=default;align=center;verticalAlign=middle;fontFamily=Helvetica;fontSize=12;fontColor=default;labelBackgroundColor=default;startSize=8;endArrow=classic;endSize=8;" parent="1" source="G_4jB5h9tyF6BoxG4SK3-18" target="JGYPUnwXIvGKZdL3sUW1-9" edge="1">
          <mxGeometry relative="1" as="geometry">
            <Array as="points">
              <mxPoint x="25" y="806" />
              <mxPoint x="29" y="342" />
            </Array>
          </mxGeometry>
        </mxCell>
        <mxCell id="G_4jB5h9tyF6BoxG4SK3-21" style="edgeStyle=none;shape=connector;curved=0;rounded=1;orthogonalLoop=1;jettySize=auto;html=1;exitX=1;exitY=0.5;exitDx=0;exitDy=0;entryX=0.054;entryY=0.3;entryDx=0;entryDy=0;entryPerimeter=0;strokeColor=default;align=center;verticalAlign=middle;fontFamily=Helvetica;fontSize=12;fontColor=default;labelBackgroundColor=default;startSize=8;endArrow=classic;endSize=8;" parent="1" source="G_4jB5h9tyF6BoxG4SK3-18" target="JGYPUnwXIvGKZdL3sUW1-50" edge="1">
          <mxGeometry relative="1" as="geometry">
            <Array as="points">
              <mxPoint x="25" y="806" />
              <mxPoint x="50" y="512" />
            </Array>
          </mxGeometry>
        </mxCell>
        <mxCell id="G_4jB5h9tyF6BoxG4SK3-22" style="edgeStyle=none;shape=connector;curved=0;rounded=1;orthogonalLoop=1;jettySize=auto;html=1;exitX=1;exitY=0.5;exitDx=0;exitDy=0;entryX=-0.009;entryY=0.388;entryDx=0;entryDy=0;entryPerimeter=0;strokeColor=default;align=center;verticalAlign=middle;fontFamily=Helvetica;fontSize=12;fontColor=default;labelBackgroundColor=default;startSize=8;endArrow=classic;endSize=8;" parent="1" source="G_4jB5h9tyF6BoxG4SK3-18" target="JGYPUnwXIvGKZdL3sUW1-71" edge="1">
          <mxGeometry relative="1" as="geometry">
            <Array as="points">
              <mxPoint x="25" y="806" />
              <mxPoint x="52" y="706" />
            </Array>
          </mxGeometry>
        </mxCell>
        <mxCell id="G_4jB5h9tyF6BoxG4SK3-25" style="edgeStyle=none;shape=connector;curved=0;rounded=1;orthogonalLoop=1;jettySize=auto;html=1;exitX=1;exitY=0.5;exitDx=0;exitDy=0;entryX=0.116;entryY=0.518;entryDx=0;entryDy=0;entryPerimeter=0;strokeColor=default;align=center;verticalAlign=middle;fontFamily=Helvetica;fontSize=12;fontColor=default;labelBackgroundColor=default;startSize=8;endArrow=classic;endSize=8;" parent="1" source="G_4jB5h9tyF6BoxG4SK3-18" target="JGYPUnwXIvGKZdL3sUW1-137" edge="1">
          <mxGeometry relative="1" as="geometry">
            <Array as="points">
              <mxPoint x="26" y="806" />
              <mxPoint x="36" y="1312" />
            </Array>
          </mxGeometry>
        </mxCell>
        <mxCell id="G_4jB5h9tyF6BoxG4SK3-28" value="Classe APIB3" style="rounded=0;whiteSpace=wrap;html=1;fontFamily=Helvetica;fontSize=12;fontColor=default;labelBackgroundColor=default;strokeWidth=2;" parent="1" vertex="1">
          <mxGeometry x="-355" y="585" width="173" height="60" as="geometry" />
        </mxCell>
        <mxCell id="G_4jB5h9tyF6BoxG4SK3-29" value="[se solicitação de dados da ação]" style="text;html=1;align=center;verticalAlign=middle;resizable=0;points=[];autosize=1;strokeColor=none;fillColor=none;fontSize=12;fontFamily=Helvetica;fontColor=default;labelBackgroundColor=default;" parent="1" vertex="1">
          <mxGeometry x="57" y="316" width="195" height="26" as="geometry" />
        </mxCell>
        <mxCell id="G_4jB5h9tyF6BoxG4SK3-30" value="[se solicitação de envio de ordem&lt;div&gt;de compra/venda]&lt;/div&gt;" style="text;html=1;align=center;verticalAlign=middle;resizable=0;points=[];autosize=1;strokeColor=none;fillColor=none;fontSize=12;fontFamily=Helvetica;fontColor=default;labelBackgroundColor=default;" parent="1" vertex="1">
          <mxGeometry x="63" y="471" width="196" height="41" as="geometry" />
        </mxCell>
        <mxCell id="G_4jB5h9tyF6BoxG4SK3-31" value="[se solicitação de modificação&lt;div&gt;de ordem]&lt;/div&gt;" style="text;html=1;align=center;verticalAlign=middle;resizable=0;points=[];autosize=1;strokeColor=none;fillColor=none;fontSize=12;fontFamily=Helvetica;fontColor=default;labelBackgroundColor=default;" parent="1" vertex="1">
          <mxGeometry x="79" y="665" width="177" height="41" as="geometry" />
        </mxCell>
        <mxCell id="G_4jB5h9tyF6BoxG4SK3-33" value="[se solicitação cancelamento&lt;div&gt;de ordem]&lt;/div&gt;" style="text;html=1;align=center;verticalAlign=middle;resizable=0;points=[];autosize=1;strokeColor=none;fillColor=none;fontSize=12;fontFamily=Helvetica;fontColor=default;labelBackgroundColor=default;" parent="1" vertex="1">
          <mxGeometry x="77" y="870" width="171" height="41" as="geometry" />
        </mxCell>
        <mxCell id="G_4jB5h9tyF6BoxG4SK3-34" value="[se solicitação cancelamento&lt;div&gt;de ordem]&lt;/div&gt;" style="text;html=1;align=center;verticalAlign=middle;resizable=0;points=[];autosize=1;strokeColor=none;fillColor=none;fontSize=12;fontFamily=Helvetica;fontColor=default;labelBackgroundColor=default;" parent="1" vertex="1">
          <mxGeometry x="73" y="1057" width="171" height="41" as="geometry" />
        </mxCell>
        <mxCell id="G_4jB5h9tyF6BoxG4SK3-36" value="[se solicitação sincronização&lt;div&gt;de carteira]&lt;/div&gt;" style="text;html=1;align=center;verticalAlign=middle;resizable=0;points=[];autosize=1;strokeColor=none;fillColor=none;fontSize=12;fontFamily=Helvetica;fontColor=default;labelBackgroundColor=default;" parent="1" vertex="1">
          <mxGeometry x="76" y="1268" width="170" height="41" as="geometry" />
        </mxCell>
        <mxCell id="q8ojRqLTtz0W8uFgenrz-1" value="" style="ellipse;html=1;shape=startState;fillColor=#000000;strokeColor=#ff0000;fontFamily=Helvetica;fontSize=12;fontColor=default;labelBackgroundColor=default;" vertex="1" parent="1">
          <mxGeometry x="-282" y="684" width="30" height="30" as="geometry" />
        </mxCell>
        <mxCell id="q8ojRqLTtz0W8uFgenrz-2" value="" style="edgeStyle=orthogonalEdgeStyle;html=1;verticalAlign=bottom;endArrow=open;endSize=8;strokeColor=#ff0000;rounded=1;align=center;fontFamily=Helvetica;fontSize=12;fontColor=default;labelBackgroundColor=default;curved=0;" edge="1" source="q8ojRqLTtz0W8uFgenrz-1" parent="1">
          <mxGeometry relative="1" as="geometry">
            <mxPoint x="-267" y="774" as="targetPoint" />
          </mxGeometry>
        </mxCell>
      </root>
    </mxGraphModel>
  </diagram>
</mxfile>
